<svg xmlns="http://www.w3.org/2000/svg" xmlns:xlink="http://www.w3.org/1999/xlink" viewBox="0 0 1169.77 1109.31"><defs><style>.cls-1{fill:none;}.cls-2{fill:#90c2fc;}.cls-3{fill:#f2f2f2;}.cls-4{fill:#edf0f4;}.cls-5{fill:#eaeef4;}.cls-6{fill:#f7f7f7;}.cls-7{fill:#e4e9ef;}.cls-8{fill:#54575b;}.cls-9{fill:#333435;}.cls-10{fill:#818e99;}.cls-11{fill:#062c4c;}.cls-12{isolation:isolate;}.cls-13{clip-path:url(#clip-path);}.cls-14{fill:#171818;}.cls-15{fill:#171717;}.cls-16{fill:#161717;}.cls-17{fill:#151616;}.cls-18{fill:#141515;}.cls-19{fill:#141414;}.cls-20{fill:#131414;}.cls-21{fill:#131313;}.cls-22{fill:#121313;}.cls-23{fill:#111212;}.cls-24{fill:#111;}.cls-25{fill:#101111;}.cls-26{fill:#101010;}.cls-27{fill:#0f1010;}.cls-28{clip-path:url(#clip-path-2);}.cls-29{clip-path:url(#clip-path-3);}.cls-30{fill:#575757;}.cls-31{fill:#555;}.cls-32{fill:#535353;}.cls-33{fill:#515151;}.cls-34{fill:#4e4e4e;}.cls-35{fill:#4c4c4c;}.cls-36{fill:#4a4a4a;}.cls-37{fill:#484848;}.cls-38{fill:#464646;}.cls-39{fill:#444;}.cls-40{clip-path:url(#clip-path-4);}.cls-41{fill:#393939;}.cls-42{fill:#3b3b3b;}.cls-43{fill:#3d3d3d;}.cls-44{fill:#3f3f3f;}.cls-45{fill:#414141;}.cls-46{fill:#636568;}.cls-47{clip-path:url(#clip-path-5);}.cls-48{clip-path:url(#clip-path-6);}.cls-49{clip-path:url(#clip-path-7);}.cls-50{clip-path:url(#clip-path-8);}.cls-51{clip-path:url(#clip-path-9);}.cls-52{clip-path:url(#clip-path-10);}.cls-53{clip-path:url(#clip-path-11);}.cls-54{clip-path:url(#clip-path-12);}.cls-55{fill:#c5cfd6;}.cls-56{fill:#c1cbd3;}.cls-57{fill:#343435;}.cls-58{fill:#bec6ce;}.cls-59{fill:#b0b9c1;}.cls-60{fill:#b2babf;}.cls-61{fill:#fff;}.cls-62{fill:#0c0c0c;}.cls-63{fill:#0b57b2;}.cls-64{fill:#0b5299;}.cls-65{fill:#bcc5cc;}.cls-66{fill:#0b4d84;}</style><clipPath id="clip-path" transform="translate(-151.58 -230.18)"><path class="cls-1" d="M1061,865.25a3.46,3.46,0,0,0-1.45-3.19l9.87,5.74a3.46,3.46,0,0,1,1.45,3.18,10.94,10.94,0,0,1-5,8.58l-9.87-5.74A10.88,10.88,0,0,0,1061,865.25Z"/></clipPath><clipPath id="clip-path-2" transform="translate(-151.58 -230.18)"><path class="cls-1" d="M1052.53,874.17a3.48,3.48,0,0,0,3.53-.35l9.87,5.74a3.47,3.47,0,0,1-3.53.34Z"/></clipPath><clipPath id="clip-path-3" transform="translate(-151.58 -230.18)"><path class="cls-1" d="M1059.56,862.06l9.87,5.74a3.5,3.5,0,0,0-3.53.34l-9.87-5.73A3.5,3.5,0,0,1,1059.56,862.06Z"/></clipPath><clipPath id="clip-path-4" transform="translate(-151.58 -230.18)"><path class="cls-1" d="M1062.4,879.9l-9.87-5.73a3.48,3.48,0,0,1-1.45-3.19,10.88,10.88,0,0,1,5-8.57l9.87,5.73a10.9,10.9,0,0,0-5,8.58A3.44,3.44,0,0,0,1062.4,879.9Z"/></clipPath><clipPath id="clip-path-5" transform="translate(-151.58 -230.18)"><path class="cls-1" d="M1063.08,856l9.86,5.73c-1.8-1-4.3-.9-7.06.7L1056,856.7C1058.77,855.11,1061.27,855,1063.08,856Z"/></clipPath><clipPath id="clip-path-6" transform="translate(-151.58 -230.18)"><path class="cls-1" d="M1058.87,886l-9.86-5.73c-1.79-1-2.89-3.24-2.9-6.37,0-6.3,4.42-14,9.9-17.15l9.87,5.74c-5.48,3.16-9.92,10.84-9.9,17.15C1056,882.72,1057.09,884.92,1058.87,886Z"/></clipPath><clipPath id="clip-path-7" transform="translate(-151.58 -230.18)"><path class="cls-1" d="M972.77,916.5a3.49,3.49,0,0,0-1.45-3.18l9.87,5.74a3.46,3.46,0,0,1,1.44,3.18,10.88,10.88,0,0,1-5,8.57l-9.86-5.73A10.92,10.92,0,0,0,972.77,916.5Z"/></clipPath><clipPath id="clip-path-8" transform="translate(-151.58 -230.18)"><path class="cls-1" d="M964.28,925.42a3.49,3.49,0,0,0,3.54-.34l9.86,5.73a3.5,3.5,0,0,1-3.53.35Z"/></clipPath><clipPath id="clip-path-9" transform="translate(-151.58 -230.18)"><path class="cls-1" d="M971.32,913.32l9.87,5.74a3.5,3.5,0,0,0-3.54.35l-9.87-5.74A3.52,3.52,0,0,1,971.32,913.32Z"/></clipPath><clipPath id="clip-path-10" transform="translate(-151.58 -230.18)"><path class="cls-1" d="M974.15,931.16l-9.87-5.73a3.5,3.5,0,0,1-1.45-3.19,10.93,10.93,0,0,1,4.95-8.57l9.87,5.74A10.9,10.9,0,0,0,972.7,928,3.48,3.48,0,0,0,974.15,931.16Z"/></clipPath><clipPath id="clip-path-11" transform="translate(-151.58 -230.18)"><path class="cls-1" d="M974.84,907.27l9.87,5.74c-1.81-1-4.31-.91-7.07.69L967.77,908C970.53,906.37,973,906.22,974.84,907.27Z"/></clipPath><clipPath id="clip-path-12" transform="translate(-151.58 -230.18)"><path class="cls-1" d="M970.64,937.21l-9.87-5.73c-1.78-1-2.89-3.24-2.9-6.38,0-6.3,4.41-14,9.9-17.14l9.87,5.74c-5.49,3.16-9.92,10.84-9.9,17.14C967.75,934,968.85,936.18,970.64,937.21Z"/></clipPath></defs><title>wego-hero-vehicle</title><g id="Layer_1" data-name="Layer 1"><path class="cls-2" d="M1279.85,604.85c53.57,147.18,61.77,319.53-14.17,460.66-71.44,132.77-207,213.87-349.73,250.41-279,71.43-628.5-15.93-735.83-310.8S284.39,418.66,544,294.06c132.78-63.73,288.79-88.78,428.87-33C1121.78,320.37,1226.28,457.67,1279.85,604.85Z" transform="translate(-151.58 -230.18)"/><g id="Building"><polygon class="cls-3" points="152.94 433.7 322.65 532.13 492.35 433.7 322.65 335.27 152.94 433.7"/><polygon class="cls-4" points="216.58 446 322.65 384.48 428.71 446 322.65 507.85 216.58 446"/><polygon class="cls-5" points="322.65 827.41 322.65 532.13 492.35 433.7 492.35 728.99 322.65 827.41"/><polygon class="cls-6" points="152.94 728.99 152.94 433.7 322.65 532.13 322.65 827.41 152.94 728.99"/><polygon class="cls-7" points="195.37 433.7 322.65 359.88 449.93 433.7 428.71 446 322.65 384.48 216.58 446 195.37 433.7"/><polygon class="cls-8" points="174.15 482.91 174.15 507.52 280.22 569.04 280.22 544.43 174.15 482.91"/><polygon class="cls-8" points="195.37 544.44 195.37 569.05 301.43 630.57 301.43 605.96 195.37 544.44"/><polygon class="cls-8" points="174.15 581.34 174.15 605.95 280.22 667.47 280.22 642.86 174.15 581.34"/><polygon class="cls-8" points="195.33 643.4 195.33 668 301.39 729.52 301.39 704.91 195.33 643.4"/><polygon class="cls-8" points="174.15 679.77 174.15 704.38 280.22 765.9 280.22 741.29 174.15 679.77"/><polygon class="cls-8" points="344.25 557.31 344.25 581.92 450.32 520.4 450.32 495.79 344.25 557.31"/><polygon class="cls-8" points="365.36 594.22 365.36 618.83 471.43 557.31 471.43 532.7 365.36 594.22"/><polygon class="cls-8" points="344.25 655.74 344.25 680.35 450.32 618.83 450.32 594.22 344.25 655.74"/><polygon class="cls-8" points="365.36 692.65 365.36 717.26 471.43 655.74 471.43 631.13 365.36 692.65"/><polygon class="cls-8" points="344.25 754.17 344.25 778.77 450.32 717.26 450.32 692.65 344.25 754.17"/></g><g id="Road"><polygon class="cls-9" points="492.35 679.77 492.35 532.13 704.48 655.16 916.62 532.13 980.25 569.04 1043.89 605.95 492.35 925.84 365.07 852.02 577.21 728.99 492.35 679.77"/></g><g id="Building-2" data-name="Building"><polygon class="cls-3" points="534.78 212.23 704.48 310.66 874.19 212.23 704.48 113.8 534.78 212.23"/><polygon class="cls-4" points="598.42 224.53 704.48 163.02 810.55 224.53 704.48 286.38 598.42 224.53"/><polygon class="cls-5" points="704.48 605.95 704.48 310.66 874.19 212.23 874.19 507.52 704.48 605.95"/><polygon class="cls-6" points="534.78 507.52 534.78 212.23 704.48 310.66 704.48 605.95 534.78 507.52"/><polygon class="cls-7" points="577.21 212.23 704.48 138.41 831.76 212.23 810.55 224.53 704.48 163.02 598.42 224.53 577.21 212.23"/><polygon class="cls-8" points="555.99 261.44 555.99 286.05 662.06 347.57 662.06 322.96 555.99 261.44"/><polygon class="cls-8" points="577.21 322.97 577.21 347.58 683.27 409.1 683.27 384.49 577.21 322.97"/><polygon class="cls-8" points="555.99 359.88 555.99 384.48 662.06 446 662.06 421.39 555.99 359.88"/><polygon class="cls-8" points="577.17 421.93 577.17 446.54 683.23 508.05 683.23 483.45 577.17 421.93"/><polygon class="cls-8" points="555.99 458.3 555.99 482.91 662.06 544.43 662.06 519.82 555.99 458.3"/><polygon class="cls-8" points="726.09 335.84 726.09 360.45 832.16 298.93 832.16 274.32 726.09 335.84"/><polygon class="cls-8" points="747.2 372.75 747.2 397.36 853.26 335.84 853.26 311.23 747.2 372.75"/><polygon class="cls-8" points="726.09 434.27 726.09 458.88 832.16 397.36 832.16 372.75 726.09 434.27"/><polygon class="cls-8" points="747.2 471.18 747.2 495.79 853.26 434.27 853.26 409.66 747.2 471.18"/><polygon class="cls-8" points="726.09 532.7 726.09 557.31 832.16 495.79 832.16 471.18 726.09 532.7"/></g></g><g id="Car"><path class="cls-10" d="M989.58,918.63l-12.14-7.09a10.38,10.38,0,0,1,4.66-1.2C986.35,910.34,989.3,913.68,989.58,918.63Z" transform="translate(-151.58 -230.18)"/><path class="cls-11" d="M1077.81,867.45l-12.26-7.1a9,9,0,0,1,4.78-1.27C1074.63,859.08,1077.58,862.42,1077.81,867.45Z" transform="translate(-151.58 -230.18)"/><g id="Wheel" class="cls-12"><g class="cls-12"><g class="cls-13"><g class="cls-12"><path class="cls-14" d="M1065.93,879.56l-9.87-5.74a8.2,8.2,0,0,0,1.66-1.28l9.87,5.73a8.26,8.26,0,0,1-1.66,1.29" transform="translate(-151.58 -230.18)"/><path class="cls-15" d="M1067.59,878.27l-9.87-5.73a7.41,7.41,0,0,0,.54-.58l9.87,5.74-.54.57" transform="translate(-151.58 -230.18)"/><path class="cls-16" d="M1068.13,877.7l-9.87-5.74c.14-.16.28-.32.41-.49l9.86,5.74c-.13.16-.26.33-.4.49" transform="translate(-151.58 -230.18)"/><path class="cls-17" d="M1068.53,877.21l-9.86-5.74q.16-.21.33-.45l9.86,5.74q-.15.22-.33.45" transform="translate(-151.58 -230.18)"/><path class="cls-17" d="M1068.86,876.76,1059,871c.1-.14.19-.28.28-.43l9.87,5.74-.29.43" transform="translate(-151.58 -230.18)"/><path class="cls-18" d="M1069.15,876.33l-9.87-5.74a4.28,4.28,0,0,0,.26-.42l9.87,5.74c-.08.14-.17.28-.26.42" transform="translate(-151.58 -230.18)"/><path class="cls-19" d="M1069.41,875.91l-9.87-5.74a4.16,4.16,0,0,0,.23-.42l9.87,5.74c-.07.14-.15.28-.23.42" transform="translate(-151.58 -230.18)"/><path class="cls-20" d="M1069.64,875.49l-9.87-5.74c.08-.14.15-.28.22-.42l9.87,5.74c-.07.14-.14.28-.22.42" transform="translate(-151.58 -230.18)"/><path class="cls-21" d="M1069.86,875.07l-9.87-5.74c.07-.14.13-.29.2-.43l9.86,5.73c-.06.15-.13.29-.19.44" transform="translate(-151.58 -230.18)"/><path class="cls-22" d="M1070.05,874.63l-9.86-5.73.18-.45,9.87,5.74c-.06.15-.12.3-.19.44" transform="translate(-151.58 -230.18)"/><path class="cls-23" d="M1070.24,874.19l-9.87-5.74c.06-.15.11-.31.17-.47l9.86,5.74c-.05.16-.1.31-.16.47" transform="translate(-151.58 -230.18)"/><path class="cls-24" d="M1070.4,873.72l-9.86-5.74.15-.5,9.87,5.73c0,.17-.1.34-.16.51" transform="translate(-151.58 -230.18)"/><path class="cls-25" d="M1070.56,873.21l-9.87-5.73c0-.19.1-.38.14-.57l9.87,5.73c0,.19-.09.38-.14.57" transform="translate(-151.58 -230.18)"/><path class="cls-26" d="M1070.7,872.64l-9.87-5.73q.08-.35.12-.69l9.87,5.73q0,.34-.12.69" transform="translate(-151.58 -230.18)"/><path class="cls-27" d="M1070.82,872l-9.87-5.73a8,8,0,0,0,.06-1,3.46,3.46,0,0,0-1.45-3.19l9.87,5.74a3.46,3.46,0,0,1,1.45,3.18,7.89,7.89,0,0,1-.06,1" transform="translate(-151.58 -230.18)"/></g></g></g><g class="cls-12"><g class="cls-28"><g class="cls-12"><path class="cls-22" d="M1062.4,879.9l-9.87-5.73,0,0,9.86,5.73,0,0" transform="translate(-151.58 -230.18)"/><path class="cls-21" d="M1062.42,879.92l-9.86-5.73.24.12,9.87,5.73a1.42,1.42,0,0,1-.25-.12" transform="translate(-151.58 -230.18)"/><path class="cls-20" d="M1062.67,880l-9.87-5.73.27.09,9.86,5.73a1.34,1.34,0,0,1-.26-.09" transform="translate(-151.58 -230.18)"/><path class="cls-19" d="M1062.93,880.13l-9.86-5.73a1.27,1.27,0,0,0,.28.06l9.86,5.74-.28-.07" transform="translate(-151.58 -230.18)"/><path class="cls-18" d="M1063.21,880.2l-9.86-5.74.3,0,9.86,5.73-.3,0" transform="translate(-151.58 -230.18)"/><path class="cls-17" d="M1063.51,880.23l-9.86-5.73h.33l9.86,5.74h-.33" transform="translate(-151.58 -230.18)"/><path class="cls-17" d="M1063.84,880.24,1054,874.5l.37,0,9.86,5.73-.37,0" transform="translate(-151.58 -230.18)"/><path class="cls-16" d="M1064.21,880.2l-9.86-5.73.43-.1,9.87,5.74a3.43,3.43,0,0,1-.44.09" transform="translate(-151.58 -230.18)"/><path class="cls-15" d="M1064.65,880.11l-9.87-5.74a5.14,5.14,0,0,0,.59-.2l9.86,5.73a5.12,5.12,0,0,1-.58.21" transform="translate(-151.58 -230.18)"/><path class="cls-14" d="M1065.23,879.9l-9.86-5.73a5,5,0,0,0,.69-.35l9.87,5.74a5,5,0,0,1-.7.34" transform="translate(-151.58 -230.18)"/></g></g></g><g class="cls-12"><g class="cls-29"><g class="cls-12"><path class="cls-30" d="M1065.9,868.14l-9.87-5.73a6.52,6.52,0,0,1,.7-.35l9.86,5.74a6.27,6.27,0,0,0-.69.34" transform="translate(-151.58 -230.18)"/><path class="cls-31" d="M1066.59,867.8l-9.86-5.74a5,5,0,0,1,.58-.2l9.87,5.73a5.25,5.25,0,0,0-.59.21" transform="translate(-151.58 -230.18)"/><path class="cls-32" d="M1067.18,867.59l-9.87-5.73.44-.09,9.87,5.73a3.43,3.43,0,0,0-.44.09" transform="translate(-151.58 -230.18)"/><path class="cls-33" d="M1067.62,867.5l-9.87-5.73.37,0,9.87,5.73-.37,0" transform="translate(-151.58 -230.18)"/><path class="cls-34" d="M1068,867.46l-9.87-5.73h.33l9.87,5.74H1068" transform="translate(-151.58 -230.18)"/><path class="cls-35" d="M1068.32,867.47l-9.87-5.74.3,0,9.86,5.73a2.58,2.58,0,0,0-.29,0" transform="translate(-151.58 -230.18)"/><path class="cls-36" d="M1068.61,867.5l-9.86-5.73.28.06,9.86,5.74-.28-.07" transform="translate(-151.58 -230.18)"/><path class="cls-37" d="M1068.89,867.57l-9.86-5.74.26.09,9.87,5.74-.27-.09" transform="translate(-151.58 -230.18)"/><path class="cls-38" d="M1069.16,867.66l-9.87-5.74.25.13,9.86,5.73-.24-.12" transform="translate(-151.58 -230.18)"/><path class="cls-39" d="M1069.4,867.78l-9.86-5.73h0l9.87,5.74,0,0" transform="translate(-151.58 -230.18)"/></g></g></g><g class="cls-12"><g class="cls-40"><g class="cls-12"><path class="cls-41" d="M1062.4,879.9l-9.87-5.73a3.48,3.48,0,0,1-1.45-3.19,8.14,8.14,0,0,1,.06-1l9.87,5.74a6.32,6.32,0,0,0-.06,1,3.44,3.44,0,0,0,1.45,3.18" transform="translate(-151.58 -230.18)"/><path class="cls-42" d="M1061,875.75l-9.87-5.74q0-.35.12-.69l9.87,5.74q-.08.35-.12.69" transform="translate(-151.58 -230.18)"/><path class="cls-43" d="M1061.13,875.06l-9.87-5.74c0-.19.09-.38.14-.57l9.87,5.74c-.06.19-.1.38-.14.57" transform="translate(-151.58 -230.18)"/><path class="cls-44" d="M1061.27,874.49l-9.87-5.74.15-.5,9.87,5.73c-.05.17-.11.34-.15.51" transform="translate(-151.58 -230.18)"/><path class="cls-45" d="M1061.42,874l-9.87-5.73c.06-.16.11-.32.17-.47l9.87,5.73c-.06.16-.12.31-.17.47" transform="translate(-151.58 -230.18)"/><path class="cls-39" d="M1061.59,873.51l-9.87-5.73.18-.45,9.87,5.74-.18.44" transform="translate(-151.58 -230.18)"/><path class="cls-38" d="M1061.77,873.07l-9.87-5.74c.07-.14.13-.29.2-.43l9.87,5.73c-.07.15-.14.29-.2.44" transform="translate(-151.58 -230.18)"/><path class="cls-37" d="M1062,872.63l-9.87-5.73c.07-.14.14-.28.22-.42l9.86,5.73-.21.42" transform="translate(-151.58 -230.18)"/><path class="cls-36" d="M1062.18,872.21l-9.86-5.73c.07-.14.15-.28.23-.42l9.87,5.74-.24.41" transform="translate(-151.58 -230.18)"/><path class="cls-35" d="M1062.42,871.8l-9.87-5.74.25-.42,9.87,5.74a4.23,4.23,0,0,0-.25.42" transform="translate(-151.58 -230.18)"/><path class="cls-34" d="M1062.67,871.38l-9.87-5.74.29-.43L1063,871c-.1.14-.2.28-.29.43" transform="translate(-151.58 -230.18)"/><path class="cls-33" d="M1063,871l-9.87-5.74.33-.45,9.87,5.74c-.11.15-.22.29-.33.45" transform="translate(-151.58 -230.18)"/><path class="cls-32" d="M1063.29,870.5l-9.87-5.74.41-.49,9.86,5.74c-.14.16-.27.32-.4.49" transform="translate(-151.58 -230.18)"/><path class="cls-31" d="M1063.69,870l-9.86-5.74a7.27,7.27,0,0,1,.54-.57l9.87,5.73c-.19.18-.37.38-.55.58" transform="translate(-151.58 -230.18)"/><path class="cls-30" d="M1064.24,869.43l-9.87-5.73a8.26,8.26,0,0,1,1.66-1.29l9.87,5.73a8.07,8.07,0,0,0-1.66,1.29" transform="translate(-151.58 -230.18)"/></g></g></g><path class="cls-46" d="M1065.9,868.14c2.74-1.58,5-.31,5,2.84a10.94,10.94,0,0,1-5,8.58c-2.75,1.58-5,.31-5-2.84A10.9,10.9,0,0,1,1065.9,868.14Z" transform="translate(-151.58 -230.18)"/><g class="cls-12"><g class="cls-47"><g class="cls-12"><path class="cls-14" d="M1065.88,862.44,1056,856.7a12.79,12.79,0,0,1,1.39-.69l9.87,5.73a11.31,11.31,0,0,0-1.39.7" transform="translate(-151.58 -230.18)"/><path class="cls-15" d="M1067.27,861.74,1057.4,856a10.14,10.14,0,0,1,1.17-.4l9.87,5.73c-.38.11-.77.24-1.17.4" transform="translate(-151.58 -230.18)"/><path class="cls-16" d="M1068.44,861.34l-9.87-5.73a7.6,7.6,0,0,1,.87-.19l9.87,5.74a7.09,7.09,0,0,0-.87.18" transform="translate(-151.58 -230.18)"/><path class="cls-17" d="M1069.31,861.16l-9.87-5.74a6.58,6.58,0,0,1,.74-.07l9.87,5.73a6.43,6.43,0,0,0-.74.08" transform="translate(-151.58 -230.18)"/><path class="cls-17" d="M1070.05,861.08l-9.87-5.73h.66l9.87,5.74a4.85,4.85,0,0,0-.66,0" transform="translate(-151.58 -230.18)"/><path class="cls-18" d="M1070.71,861.09l-9.87-5.74.6.07,9.87,5.74a4.09,4.09,0,0,0-.6-.07" transform="translate(-151.58 -230.18)"/><path class="cls-19" d="M1071.31,861.16l-9.87-5.74.56.13,9.86,5.73a4.88,4.88,0,0,0-.55-.12" transform="translate(-151.58 -230.18)"/><path class="cls-20" d="M1071.86,861.28l-9.86-5.73a3.24,3.24,0,0,1,.52.19l9.87,5.73-.53-.19" transform="translate(-151.58 -230.18)"/><path class="cls-21" d="M1072.39,861.47l-9.87-5.73a4.59,4.59,0,0,1,.5.24l9.87,5.73a4.59,4.59,0,0,0-.5-.24" transform="translate(-151.58 -230.18)"/><path class="cls-22" d="M1072.89,861.71,1063,856l.06,0,9.86,5.73,0,0" transform="translate(-151.58 -230.18)"/></g></g></g><g class="cls-12"><g class="cls-48"><g class="cls-12"><path class="cls-27" d="M1058.87,886l-9.86-5.73c-1.79-1-2.89-3.24-2.9-6.37a14.37,14.37,0,0,1,.13-1.94l9.87,5.73a14.41,14.41,0,0,0-.13,2c0,3.13,1.11,5.33,2.89,6.36" transform="translate(-151.58 -230.18)"/><path class="cls-26" d="M1056.11,877.64l-9.87-5.73c.06-.46.14-.92.23-1.38l9.87,5.74a13.51,13.51,0,0,0-.23,1.37" transform="translate(-151.58 -230.18)"/><path class="cls-25" d="M1056.34,876.27l-9.87-5.74c.09-.38.18-.76.28-1.14l9.87,5.74c-.1.38-.2.76-.28,1.14" transform="translate(-151.58 -230.18)"/><path class="cls-24" d="M1056.62,875.13l-9.87-5.74c.1-.33.2-.67.31-1l9.87,5.74c-.11.33-.22.67-.31,1" transform="translate(-151.58 -230.18)"/><path class="cls-23" d="M1056.93,874.12l-9.87-5.74c.11-.31.22-.63.34-.94l9.87,5.74c-.12.31-.24.62-.34.94" transform="translate(-151.58 -230.18)"/><path class="cls-22" d="M1057.27,873.18l-9.87-5.74c.11-.3.24-.59.36-.89l9.87,5.74c-.13.29-.25.59-.36.89" transform="translate(-151.58 -230.18)"/><path class="cls-21" d="M1057.63,872.29l-9.87-5.74c.13-.29.26-.58.4-.86l9.87,5.73c-.14.29-.27.58-.4.87" transform="translate(-151.58 -230.18)"/><path class="cls-20" d="M1058,871.42l-9.87-5.73c.14-.29.28-.57.43-.85l9.86,5.74c-.14.28-.29.56-.42.84" transform="translate(-151.58 -230.18)"/><path class="cls-19" d="M1058.45,870.58l-9.86-5.74c.15-.28.3-.56.46-.83l9.87,5.73c-.16.28-.32.56-.47.84" transform="translate(-151.58 -230.18)"/><path class="cls-18" d="M1058.92,869.74l-9.87-5.73c.17-.29.34-.57.52-.84l9.86,5.73-.51.84" transform="translate(-151.58 -230.18)"/><path class="cls-17" d="M1059.43,868.9l-9.86-5.73c.18-.3.38-.58.57-.86L1060,868c-.2.28-.39.57-.58.86" transform="translate(-151.58 -230.18)"/><path class="cls-17" d="M1060,868l-9.87-5.73q.33-.46.66-.9l9.87,5.73c-.22.3-.45.6-.66.9" transform="translate(-151.58 -230.18)"/><path class="cls-16" d="M1060.67,867.14l-9.87-5.73c.27-.34.53-.67.81-1l9.87,5.73c-.28.32-.55.65-.81,1" transform="translate(-151.58 -230.18)"/><path class="cls-15" d="M1061.48,866.16l-9.87-5.73c.35-.41.71-.79,1.09-1.16l9.86,5.73c-.37.37-.73.76-1.08,1.16" transform="translate(-151.58 -230.18)"/><path class="cls-14" d="M1062.56,865l-9.86-5.73a16.49,16.49,0,0,1,3.31-2.57l9.87,5.74a16.78,16.78,0,0,0-3.32,2.56" transform="translate(-151.58 -230.18)"/></g></g></g><path class="cls-16" d="M1065.88,862.44c5.48-3.17,9.94-.62,10,5.68s-4.41,14-9.89,17.14-10,.63-10-5.67S1060.4,865.6,1065.88,862.44Zm0,17.12a10.94,10.94,0,0,0,5-8.58c0-3.15-2.24-4.42-5-2.84a10.9,10.9,0,0,0-5,8.58c0,3.15,2.23,4.42,5,2.84Z" transform="translate(-151.58 -230.18)"/></g><g id="Wheel-2" data-name="Wheel" class="cls-12"><g class="cls-12"><g class="cls-49"><g class="cls-12"><path class="cls-14" d="M977.68,930.81l-9.86-5.73a8.64,8.64,0,0,0,1.66-1.29l9.87,5.74a8,8,0,0,1-1.67,1.28" transform="translate(-151.58 -230.18)"/><path class="cls-15" d="M979.35,929.53l-9.87-5.74a7.54,7.54,0,0,0,.54-.58l9.87,5.74-.54.58" transform="translate(-151.58 -230.18)"/><path class="cls-16" d="M979.89,929,970,923.21c.14-.15.27-.32.4-.49l9.87,5.74c-.13.17-.26.33-.4.49" transform="translate(-151.58 -230.18)"/><path class="cls-17" d="M980.29,928.46l-9.87-5.74a4.59,4.59,0,0,0,.33-.44l9.87,5.73-.33.45" transform="translate(-151.58 -230.18)"/><path class="cls-17" d="M980.62,928l-9.87-5.73.29-.43,9.87,5.73c-.09.15-.19.29-.29.43" transform="translate(-151.58 -230.18)"/><path class="cls-18" d="M980.91,927.58,971,921.85l.26-.42,9.86,5.73c-.08.14-.16.28-.25.42" transform="translate(-151.58 -230.18)"/><path class="cls-19" d="M981.16,927.16l-9.86-5.73c.08-.14.16-.28.23-.42l9.87,5.73c-.08.15-.16.28-.24.42" transform="translate(-151.58 -230.18)"/><path class="cls-20" d="M981.4,926.74,971.53,921c.07-.14.15-.28.21-.42l9.87,5.73c-.07.14-.14.29-.21.42" transform="translate(-151.58 -230.18)"/><path class="cls-21" d="M981.61,926.32l-9.87-5.73c.07-.14.14-.29.2-.43l9.87,5.73c-.06.15-.13.29-.2.43" transform="translate(-151.58 -230.18)"/><path class="cls-22" d="M981.81,925.89l-9.87-5.73a4.22,4.22,0,0,0,.18-.45l9.87,5.74-.18.44" transform="translate(-151.58 -230.18)"/><path class="cls-23" d="M982,925.45l-9.87-5.74c.06-.15.12-.31.17-.47l9.87,5.74c0,.15-.11.31-.17.47" transform="translate(-151.58 -230.18)"/><path class="cls-24" d="M982.16,925l-9.87-5.74c.06-.16.11-.33.16-.5l9.86,5.73c0,.17-.1.34-.15.51" transform="translate(-151.58 -230.18)"/><path class="cls-25" d="M982.31,924.47l-9.86-5.73c0-.19.1-.38.14-.57l9.86,5.73c0,.19-.08.38-.14.57" transform="translate(-151.58 -230.18)"/><path class="cls-26" d="M982.45,923.9l-9.86-5.73c0-.23.08-.46.11-.69l9.87,5.73q0,.35-.12.69" transform="translate(-151.58 -230.18)"/><path class="cls-27" d="M982.57,923.21l-9.87-5.73a6.55,6.55,0,0,0,.07-1,3.49,3.49,0,0,0-1.45-3.18l9.87,5.74a3.46,3.46,0,0,1,1.44,3.18,6.4,6.4,0,0,1-.06,1" transform="translate(-151.58 -230.18)"/></g></g></g><g class="cls-12"><g class="cls-50"><g class="cls-12"><path class="cls-22" d="M974.15,931.16l-9.87-5.73h0l9.87,5.73h0" transform="translate(-151.58 -230.18)"/><path class="cls-21" d="M974.18,931.17l-9.87-5.73a1.15,1.15,0,0,0,.25.12l9.87,5.74-.25-.13" transform="translate(-151.58 -230.18)"/><path class="cls-20" d="M974.43,931.3l-9.87-5.74.26.1,9.87,5.73-.26-.09" transform="translate(-151.58 -230.18)"/><path class="cls-19" d="M974.69,931.39l-9.87-5.73.28.06,9.87,5.73a1.27,1.27,0,0,1-.28-.06" transform="translate(-151.58 -230.18)"/><path class="cls-18" d="M975,931.45l-9.87-5.73.3,0,9.87,5.74-.3,0" transform="translate(-151.58 -230.18)"/><path class="cls-17" d="M975.27,931.49l-9.87-5.74h.33l9.87,5.73h-.33" transform="translate(-151.58 -230.18)"/><path class="cls-17" d="M975.6,931.49l-9.87-5.73.37,0,9.87,5.73a2.46,2.46,0,0,1-.37,0" transform="translate(-151.58 -230.18)"/><path class="cls-16" d="M976,931.45l-9.87-5.73.44-.09,9.86,5.73a3.29,3.29,0,0,1-.43.09" transform="translate(-151.58 -230.18)"/><path class="cls-15" d="M976.4,931.36l-9.86-5.73a5,5,0,0,0,.58-.2l9.87,5.73a4.56,4.56,0,0,1-.59.2" transform="translate(-151.58 -230.18)"/><path class="cls-14" d="M977,931.16l-9.87-5.73a6.52,6.52,0,0,0,.7-.35l9.86,5.73a5.6,5.6,0,0,1-.69.35" transform="translate(-151.58 -230.18)"/></g></g></g><g class="cls-12"><g class="cls-51"><g class="cls-12"><path class="cls-30" d="M977.65,919.41l-9.87-5.74c.24-.13.47-.25.7-.35l9.87,5.74a5.08,5.08,0,0,0-.7.35" transform="translate(-151.58 -230.18)"/><path class="cls-31" d="M978.35,919.06l-9.87-5.74a5.14,5.14,0,0,1,.59-.2l9.86,5.74a5,5,0,0,0-.58.2" transform="translate(-151.58 -230.18)"/><path class="cls-32" d="M978.93,918.86l-9.86-5.74.43-.09,9.87,5.73-.44.1" transform="translate(-151.58 -230.18)"/><path class="cls-33" d="M979.37,918.76,969.5,913l.37,0,9.87,5.74-.37,0" transform="translate(-151.58 -230.18)"/><path class="cls-34" d="M979.74,918.73,969.87,913h.33l9.87,5.73h-.33" transform="translate(-151.58 -230.18)"/><path class="cls-35" d="M980.07,918.73,970.2,913a1.39,1.39,0,0,1,.3,0l9.87,5.73-.3,0" transform="translate(-151.58 -230.18)"/><path class="cls-36" d="M980.37,918.76,970.5,913l.28.06,9.87,5.74-.28-.07" transform="translate(-151.58 -230.18)"/><path class="cls-37" d="M980.65,918.83l-9.87-5.74.26.1,9.87,5.73a2,2,0,0,0-.26-.09" transform="translate(-151.58 -230.18)"/><path class="cls-38" d="M980.91,918.92,971,913.19a1.15,1.15,0,0,1,.25.12l9.87,5.73-.25-.12" transform="translate(-151.58 -230.18)"/><path class="cls-39" d="M981.16,919l-9.87-5.73h0l9.87,5.74,0,0" transform="translate(-151.58 -230.18)"/></g></g></g><g class="cls-12"><g class="cls-52"><g class="cls-12"><path class="cls-41" d="M974.15,931.16l-9.87-5.73a3.5,3.5,0,0,1-1.45-3.19,6.42,6.42,0,0,1,.07-1l9.86,5.74a7.85,7.85,0,0,0-.06,1,3.48,3.48,0,0,0,1.45,3.19" transform="translate(-151.58 -230.18)"/><path class="cls-42" d="M972.76,927l-9.86-5.74c0-.23.07-.45.11-.68l9.87,5.73q-.07.34-.12.69" transform="translate(-151.58 -230.18)"/><path class="cls-43" d="M972.88,926.32,963,920.59c0-.19.09-.38.14-.57l9.87,5.73c0,.19-.1.38-.14.57" transform="translate(-151.58 -230.18)"/><path class="cls-44" d="M973,925.75,963.15,920c.05-.17.1-.34.16-.51l9.86,5.74-.15.5" transform="translate(-151.58 -230.18)"/><path class="cls-45" d="M973.17,925.25l-9.86-5.74c.05-.15.11-.31.17-.47l9.86,5.74c-.06.15-.11.31-.17.47" transform="translate(-151.58 -230.18)"/><path class="cls-39" d="M973.34,924.78,963.48,919a4.07,4.07,0,0,1,.18-.44l9.87,5.73c-.07.15-.13.3-.19.45" transform="translate(-151.58 -230.18)"/><path class="cls-38" d="M973.53,924.33l-9.87-5.73c.06-.15.13-.29.2-.43l9.86,5.73c-.07.14-.13.29-.19.43" transform="translate(-151.58 -230.18)"/><path class="cls-37" d="M973.72,923.9l-9.86-5.73c.06-.14.14-.29.21-.42l9.87,5.73c-.08.14-.15.28-.22.42" transform="translate(-151.58 -230.18)"/><path class="cls-36" d="M973.94,923.48l-9.87-5.73a4.16,4.16,0,0,1,.23-.42l9.87,5.73c-.08.14-.16.28-.23.42" transform="translate(-151.58 -230.18)"/><path class="cls-35" d="M974.17,923.06l-9.87-5.73c.09-.15.17-.29.26-.42l9.87,5.73c-.09.14-.18.28-.26.42" transform="translate(-151.58 -230.18)"/><path class="cls-34" d="M974.43,922.64l-9.87-5.73c.09-.15.19-.29.29-.43l9.86,5.73c-.09.14-.19.28-.28.43" transform="translate(-151.58 -230.18)"/><path class="cls-33" d="M974.71,922.21l-9.86-5.73a5.22,5.22,0,0,1,.33-.45l9.87,5.73-.34.45" transform="translate(-151.58 -230.18)"/><path class="cls-32" d="M975.05,921.76,965.18,916c.13-.17.26-.34.4-.49l9.87,5.73c-.14.16-.27.32-.4.49" transform="translate(-151.58 -230.18)"/><path class="cls-31" d="M975.45,921.27l-9.87-5.73a7.64,7.64,0,0,1,.55-.58l9.86,5.73c-.18.18-.37.38-.54.58" transform="translate(-151.58 -230.18)"/><path class="cls-30" d="M976,920.69,966.13,915a8.29,8.29,0,0,1,1.65-1.29l9.87,5.74a8.2,8.2,0,0,0-1.66,1.28" transform="translate(-151.58 -230.18)"/></g></g></g><path class="cls-46" d="M977.65,919.41c2.75-1.59,5-.32,5,2.83a10.88,10.88,0,0,1-5,8.57c-2.74,1.59-5,.32-5-2.84A10.9,10.9,0,0,1,977.65,919.41Z" transform="translate(-151.58 -230.18)"/><g class="cls-12"><g class="cls-53"><g class="cls-12"><path class="cls-14" d="M977.64,913.7,967.77,908a12,12,0,0,1,1.39-.69L979,913a12,12,0,0,0-1.39.69" transform="translate(-151.58 -230.18)"/><path class="cls-15" d="M979,913l-9.87-5.74a10.14,10.14,0,0,1,1.17-.4l9.87,5.73A9.62,9.62,0,0,0,979,913" transform="translate(-151.58 -230.18)"/><path class="cls-16" d="M980.2,912.6l-9.87-5.73c.3-.08.59-.14.87-.19l9.87,5.74a7.09,7.09,0,0,0-.87.18" transform="translate(-151.58 -230.18)"/><path class="cls-17" d="M981.07,912.42l-9.87-5.74a6.54,6.54,0,0,1,.75-.07l9.86,5.73a6.43,6.43,0,0,0-.74.08" transform="translate(-151.58 -230.18)"/><path class="cls-17" d="M981.81,912.34,972,906.61h.65l9.87,5.74a4.8,4.8,0,0,0-.66,0" transform="translate(-151.58 -230.18)"/><path class="cls-18" d="M982.47,912.35l-9.87-5.74.6.07,9.87,5.74a3.93,3.93,0,0,0-.6-.07" transform="translate(-151.58 -230.18)"/><path class="cls-19" d="M983.07,912.42l-9.87-5.74.56.13,9.87,5.74a3.5,3.5,0,0,0-.56-.13" transform="translate(-151.58 -230.18)"/><path class="cls-20" d="M983.63,912.55l-9.87-5.74a4.76,4.76,0,0,1,.53.19l9.86,5.73a4.56,4.56,0,0,0-.52-.18" transform="translate(-151.58 -230.18)"/><path class="cls-21" d="M984.15,912.73,974.29,907a4.44,4.44,0,0,1,.49.24l9.87,5.73a4.59,4.59,0,0,0-.5-.24" transform="translate(-151.58 -230.18)"/><path class="cls-22" d="M984.65,913l-9.87-5.73.06,0,9.87,5.74-.06,0" transform="translate(-151.58 -230.18)"/></g></g></g><g class="cls-12"><g class="cls-54"><g class="cls-12"><path class="cls-27" d="M970.64,937.21l-9.87-5.73c-1.78-1-2.89-3.24-2.9-6.38a14.37,14.37,0,0,1,.13-1.94l9.87,5.73a14.41,14.41,0,0,0-.13,2c0,3.13,1.11,5.34,2.9,6.37" transform="translate(-151.58 -230.18)"/><path class="cls-26" d="M967.87,928.89,958,923.16q.09-.69.24-1.38l9.86,5.74c-.1.46-.17.92-.23,1.37" transform="translate(-151.58 -230.18)"/><path class="cls-25" d="M968.1,927.52l-9.86-5.74q.12-.57.27-1.14l9.87,5.74c-.1.38-.2.76-.28,1.14" transform="translate(-151.58 -230.18)"/><path class="cls-24" d="M968.38,926.38l-9.87-5.74c.1-.33.2-.67.31-1l9.87,5.74c-.11.33-.21.67-.31,1" transform="translate(-151.58 -230.18)"/><path class="cls-23" d="M968.69,925.37l-9.87-5.74c.11-.31.22-.62.34-.94l9.87,5.74c-.12.31-.23.62-.34.94" transform="translate(-151.58 -230.18)"/><path class="cls-22" d="M969,924.43l-9.87-5.74c.11-.29.24-.59.36-.89l9.87,5.74c-.13.29-.25.59-.36.89" transform="translate(-151.58 -230.18)"/><path class="cls-21" d="M969.39,923.54l-9.87-5.74c.13-.28.26-.57.4-.86l9.87,5.74c-.14.28-.27.57-.4.86" transform="translate(-151.58 -230.18)"/><path class="cls-20" d="M969.79,922.68l-9.87-5.74c.14-.28.28-.56.43-.84l9.86,5.73c-.15.28-.29.56-.42.85" transform="translate(-151.58 -230.18)"/><path class="cls-19" d="M970.21,921.83l-9.86-5.73c.15-.28.3-.56.46-.84l9.87,5.74c-.16.27-.32.55-.47.83" transform="translate(-151.58 -230.18)"/><path class="cls-18" d="M970.68,921l-9.87-5.74.51-.84,9.87,5.74c-.17.27-.35.55-.51.84" transform="translate(-151.58 -230.18)"/><path class="cls-17" d="M971.19,920.16l-9.87-5.74c.19-.29.38-.57.58-.85l9.87,5.73c-.2.28-.39.57-.58.86" transform="translate(-151.58 -230.18)"/><path class="cls-17" d="M971.77,919.3l-9.87-5.73q.32-.47.66-.9l9.87,5.73q-.34.45-.66.9" transform="translate(-151.58 -230.18)"/><path class="cls-16" d="M972.43,918.4l-9.87-5.73c.26-.34.53-.66.81-1l9.86,5.73c-.27.32-.54.65-.8,1" transform="translate(-151.58 -230.18)"/><path class="cls-15" d="M973.23,917.42l-9.86-5.73c.35-.4.71-.79,1.08-1.16l9.87,5.74c-.38.37-.74.75-1.09,1.15" transform="translate(-151.58 -230.18)"/><path class="cls-14" d="M974.32,916.27l-9.87-5.74a16.92,16.92,0,0,1,3.32-2.57l9.87,5.74a16.27,16.27,0,0,0-3.32,2.57" transform="translate(-151.58 -230.18)"/></g></g></g><path class="cls-16" d="M977.64,913.7c5.48-3.17,9.94-.63,10,5.67s-4.42,14-9.9,17.15-9.94.63-10-5.68S972.15,916.86,977.64,913.7Zm0,17.11a10.88,10.88,0,0,0,5-8.57c0-3.15-2.23-4.42-5-2.83A10.9,10.9,0,0,0,972.7,928c0,3.16,2.24,4.43,5,2.84Z" transform="translate(-151.58 -230.18)"/></g><g id="Vehicle_Frame" data-name="Vehicle Frame"><polygon class="cls-55" points="842.37 636.71 842.37 636.71 831.76 642.86 768.12 605.94 778.72 599.79 842.37 636.71"/><polygon class="cls-56" points="831.76 642.86 810.55 679.77 746.9 642.86 768.12 605.94 831.76 642.86"/><polygon class="cls-57" points="752.35 641.39 769.59 611.41 826.3 644.31 809.04 674.27 752.35 641.39"/><polygon class="cls-58" points="810.55 679.77 799.94 685.92 736.3 649.01 746.9 642.86 810.55 679.77"/><polygon class="cls-59" points="799.95 685.93 799.94 693.95 799.94 694.07 789.33 687.93 746.9 663.32 736.3 656.94 736.3 649.02 799.95 685.93 799.95 685.93"/><polyline class="cls-60" points="799.94 710.53 736.3 673.62 736.3 667.49 746.85 673.57 789.28 698.18 799.95 704.4 799.95 704.4"/><polygon class="cls-61" points="746.9 663.32 746.91 673.6 736.3 667.49 736.3 656.94 746.9 663.32"/><polygon class="cls-62" points="789.33 687.93 789.34 698.21 746.91 673.6 746.9 663.32 789.33 687.93"/><polygon class="cls-61" points="799.94 694.07 799.93 704.39 789.34 698.21 789.33 687.93 799.94 694.07"/><polygon class="cls-63" points="927.22 575.19 842.36 624.4 778.73 587.49 863.59 538.28 927.22 575.19"/><path class="cls-64" d="M1078.8,805.36v61.52l-.72.43-.27.14c-.23-5-3.3-8.37-7.6-8.37a8.82,8.82,0,0,0-4.39,1.12c-.22.11-.45.23-.67.36-6.13,3.54-10.92,11.84-10.9,18.89a12.12,12.12,0,0,0,.11,1.62L994,916.1V854.58Z" transform="translate(-151.58 -230.18)"/><path class="cls-65" d="M994,866.88V916.1l-4.31,2.5-.06,0a.17.17,0,0,0,0-.07c-.28-4.95-3.21-8.23-7.46-8.23a10.38,10.38,0,0,0-4.66,1.2c-.27.13-.53.28-.8.43-6.13,3.54-10.92,11.83-10.9,18.88a11.21,11.21,0,0,0,.1,1.55l-14.32,8.32V916.1l10.6-6.15h0L983.35,873h0Z" transform="translate(-151.58 -230.18)"/><polygon class="cls-57" points="838.36 644.08 838.36 663.64 817.54 675.72 834.62 645.91 838.36 644.08"/><polygon class="cls-66" points="842.36 624.4 842.37 636.71 778.72 599.79 778.73 587.49 842.36 624.4"/></g></g></svg>